<svg width="445" height="84" viewBox="0 0 445 84" fill="none" xmlns="http://www.w3.org/2000/svg">
<path d="M21.816 12.536C23.5653 12.536 25.1013 12.728 26.424 13.112C27.7467 13.4533 28.728 13.8587 29.368 14.328L28.28 21.112C27.8107 20.8133 27.2773 20.5787 26.68 20.408C26.0827 20.2373 25.336 20.152 24.44 20.152C22.9467 20.152 21.7093 20.4933 20.728 21.176C19.7893 21.8587 19.32 23.0533 19.32 24.76V28.92L19.96 30.712V59H9.08V24.056C9.08 22.008 9.4 20.2587 10.04 18.808C10.7227 17.3573 11.6613 16.1627 12.856 15.224C14.0507 14.2853 15.416 13.6027 16.952 13.176C18.488 12.7493 20.1093 12.536 21.816 12.536ZM29.048 27V34.744H3.96V27H29.048ZM38.904 23.288C36.6853 23.288 35.064 22.8827 34.04 22.072C33.0587 21.2187 32.568 19.896 32.568 18.104C32.568 16.2693 33.0587 14.9467 34.04 14.136C35.064 13.2827 36.6853 12.856 38.904 12.856C41.08 12.856 42.68 13.2827 43.704 14.136C44.728 14.9467 45.24 16.2693 45.24 18.104C45.24 19.896 44.728 21.2187 43.704 22.072C42.68 22.8827 41.08 23.288 38.904 23.288ZM44.344 27V59H33.464V27H44.344ZM52.0915 59V27H61.8195L62.3955 38.008L61.1795 36.792C61.6062 34.488 62.3528 32.568 63.4195 31.032C64.5288 29.496 65.8942 28.344 67.5155 27.576C69.1795 26.7653 71.0355 26.36 73.0835 26.36C75.3022 26.36 77.2222 26.7867 78.8435 27.64C80.5075 28.4933 81.8088 29.752 82.7475 31.416C83.6862 33.08 84.1555 35.1707 84.1555 37.688V59H73.2755V40.568C73.2755 38.3493 72.8488 36.8133 71.9955 35.96C71.1422 35.1067 70.0542 34.68 68.7315 34.68C67.7075 34.68 66.7475 34.936 65.8515 35.448C64.9555 35.9173 64.2515 36.6853 63.7395 37.752C63.2275 38.8187 62.9715 40.248 62.9715 42.04V59H52.0915ZM103.555 59.64C100.91 59.64 98.5843 59 96.579 57.72C94.6163 56.3973 93.0803 54.4987 91.971 52.024C90.9043 49.5493 90.371 46.584 90.371 43.128C90.371 39.544 90.9257 36.5147 92.035 34.04C93.187 31.5653 94.7657 29.6667 96.771 28.344C98.819 27.0213 101.166 26.36 103.811 26.36C106.712 26.36 109.038 27.256 110.787 29.048C112.579 30.7973 113.731 33.0373 114.243 35.768L113.219 37.112V13.432H124.099V59H114.371L113.667 48.12L114.947 49.08C114.691 51.2133 114.03 53.0693 112.963 54.648C111.939 56.2267 110.616 57.464 108.995 58.36C107.416 59.2133 105.603 59.64 103.555 59.64ZM107.331 51.64C108.568 51.64 109.614 51.32 110.467 50.68C111.363 49.9973 112.046 48.9947 112.515 47.672C112.984 46.3493 113.219 44.728 113.219 42.808C113.219 41.016 112.984 39.5013 112.515 38.264C112.088 36.984 111.427 36.024 110.531 35.384C109.678 34.7013 108.632 34.36 107.395 34.36C105.518 34.36 104.024 35.064 102.915 36.472C101.848 37.8373 101.315 40.0133 101.315 43C101.315 45.9867 101.848 48.184 102.915 49.592C103.982 50.9573 105.454 51.64 107.331 51.64ZM150.217 59V27H159.945L160.265 33.208C161.289 30.9467 162.718 29.24 164.553 28.088C166.43 26.936 168.585 26.36 171.017 26.36C173.406 26.36 175.475 26.8933 177.225 27.96C178.974 29.0267 180.275 30.6053 181.129 32.696C181.811 31.288 182.686 30.1147 183.753 29.176C184.862 28.2373 186.121 27.5333 187.529 27.064C188.937 26.5947 190.387 26.36 191.881 26.36C194.014 26.36 195.891 26.7867 197.513 27.64C199.134 28.4507 200.414 29.7093 201.353 31.416C202.334 33.08 202.825 35.1707 202.825 37.688V59H191.945V40.184C191.945 38.136 191.539 36.7067 190.729 35.896C189.961 35.0853 188.915 34.68 187.593 34.68C186.526 34.68 185.545 34.9573 184.649 35.512C183.795 36.024 183.134 36.8133 182.665 37.88C182.195 38.9467 181.961 40.2907 181.961 41.912V59H171.081V40.184C171.081 38.136 170.675 36.7067 169.865 35.896C169.054 35.0853 168.009 34.68 166.729 34.68C165.747 34.68 164.809 34.936 163.913 35.448C163.059 35.96 162.377 36.7707 161.865 37.88C161.353 38.9467 161.097 40.3547 161.097 42.104V59H150.217ZM241.346 27L229.698 59C228.503 62.3707 227.202 65.0587 225.794 67.064C224.386 69.0693 222.722 70.52 220.802 71.416C218.882 72.312 216.578 72.76 213.89 72.76C212.098 72.76 210.455 72.568 208.962 72.184C207.469 71.8 206.167 71.2667 205.058 70.584L207.234 63.224C208.002 63.7787 208.813 64.1627 209.666 64.376C210.519 64.632 211.607 64.76 212.93 64.76C214.167 64.76 215.17 64.5467 215.938 64.12C216.749 63.6933 217.389 62.8827 217.858 61.688L218.69 59.704L214.978 51L205.378 27H217.346L222.274 45.24L223.81 52.024L225.602 44.984L230.53 27H241.346ZM273.868 59.64C271.222 59.64 268.897 59 266.892 57.72C264.929 56.3973 263.393 54.4987 262.284 52.024C261.217 49.5493 260.684 46.584 260.684 43.128C260.684 39.544 261.238 36.5147 262.348 34.04C263.5 31.5653 265.078 29.6667 267.084 28.344C269.132 27.0213 271.478 26.36 274.124 26.36C277.025 26.36 279.35 27.256 281.1 29.048C282.892 30.7973 284.044 33.0373 284.556 35.768L283.532 37.112V13.432H294.412V59H284.684L283.98 48.12L285.26 49.08C285.004 51.2133 284.342 53.0693 283.276 54.648C282.252 56.2267 280.929 57.464 279.308 58.36C277.729 59.2133 275.916 59.64 273.868 59.64ZM277.644 51.64C278.881 51.64 279.926 51.32 280.78 50.68C281.676 49.9973 282.358 48.9947 282.828 47.672C283.297 46.3493 283.532 44.728 283.532 42.808C283.532 41.016 283.297 39.5013 282.828 38.264C282.401 36.984 281.74 36.024 280.844 35.384C279.99 34.7013 278.945 34.36 277.708 34.36C275.83 34.36 274.337 35.064 273.228 36.472C272.161 37.8373 271.628 40.0133 271.628 43C271.628 45.9867 272.161 48.184 273.228 49.592C274.294 50.9573 275.766 51.64 277.644 51.64ZM302.217 59V27H311.817L312.265 33.912C313.075 31.5227 314.27 29.6667 315.849 28.344C317.47 27.0213 319.518 26.36 321.993 26.36C322.803 26.36 323.486 26.424 324.041 26.552C324.638 26.68 325.107 26.8507 325.449 27.064L324.361 36.024C323.934 35.8533 323.379 35.7253 322.697 35.64C322.057 35.512 321.267 35.448 320.329 35.448C319.049 35.448 317.854 35.7253 316.745 36.28C315.635 36.8347 314.739 37.6667 314.057 38.776C313.417 39.8427 313.097 41.208 313.097 42.872V59H302.217ZM347.26 38.712C347.26 37.2187 346.833 36.0453 345.98 35.192C345.169 34.296 344.06 33.848 342.652 33.848C341.244 33.848 340.028 34.2107 339.004 34.936C338.023 35.6187 337.34 36.856 336.956 38.648L327.74 36.472C328.337 33.4 329.916 30.9467 332.476 29.112C335.036 27.2773 338.641 26.36 343.292 26.36C346.407 26.36 349.052 26.8293 351.228 27.768C353.447 28.664 355.132 30.0293 356.284 31.864C357.479 33.656 358.076 35.8747 358.076 38.52V50.232C358.076 51.896 358.823 52.728 360.316 52.728C361.084 52.728 361.703 52.6427 362.172 52.472L361.532 58.68C360.252 59.2773 358.695 59.576 356.86 59.576C355.196 59.576 353.724 59.32 352.444 58.808C351.164 58.2533 350.161 57.4427 349.436 56.376C348.711 55.2667 348.348 53.88 348.348 52.216V51.832L349.564 51.384C349.564 53.2187 349.009 54.7547 347.9 55.992C346.833 57.2293 345.425 58.1467 343.676 58.744C341.969 59.3413 340.177 59.64 338.3 59.64C336.124 59.64 334.225 59.2987 332.604 58.616C330.983 57.9333 329.724 56.952 328.828 55.672C327.975 54.3493 327.548 52.728 327.548 50.808C327.548 48.504 328.231 46.6053 329.596 45.112C331.004 43.576 333.201 42.5093 336.188 41.912L348.284 39.416L348.22 45.176L342.076 46.456C340.796 46.712 339.836 47.096 339.196 47.608C338.599 48.0773 338.3 48.8027 338.3 49.784C338.3 50.7227 338.641 51.4267 339.324 51.896C340.007 52.3653 340.817 52.6 341.756 52.6C342.481 52.6 343.164 52.4933 343.804 52.28C344.487 52.0667 345.084 51.7467 345.596 51.32C346.108 50.8507 346.513 50.2747 346.812 49.592C347.111 48.9093 347.26 48.0987 347.26 47.16V38.712ZM401.603 27L386.243 43.384L384.195 43.96L375.043 54.2L374.979 43.064L389.507 27H401.603ZM377.347 13.432V59H366.467V13.432H377.347ZM387.907 36.6L402.307 59H390.275L380.803 43L387.907 36.6ZM420.208 59.64C416.666 59.64 413.594 58.9787 410.992 57.656C408.432 56.3333 406.448 54.4347 405.04 51.96C403.632 49.4853 402.928 46.4987 402.928 43C402.928 39.5013 403.632 36.5147 405.04 34.04C406.448 31.5653 408.41 29.6667 410.928 28.344C413.488 27.0213 416.41 26.36 419.696 26.36C423.066 26.36 425.925 27.0213 428.272 28.344C430.661 29.624 432.474 31.416 433.712 33.72C434.949 35.9813 435.568 38.584 435.568 41.528C435.568 42.296 435.546 43.064 435.504 43.832C435.461 44.6 435.397 45.24 435.312 45.752H409.968V39.928H430.512L425.328 41.912C425.328 39.352 424.858 37.3893 423.92 36.024C423.024 34.6587 421.616 33.976 419.696 33.976C418.33 33.976 417.157 34.296 416.176 34.936C415.237 35.576 414.512 36.5787 414 37.944C413.53 39.3093 413.296 41.0587 413.296 43.192C413.296 45.2827 413.573 46.9893 414.128 48.312C414.682 49.592 415.472 50.5307 416.496 51.128C417.52 51.6827 418.757 51.96 420.208 51.96C421.829 51.96 423.109 51.64 424.048 51C425.029 50.36 425.754 49.464 426.224 48.312L434.928 51.192C434.33 53.0267 433.285 54.584 431.792 55.864C430.341 57.1013 428.592 58.04 426.544 58.68C424.538 59.32 422.426 59.64 420.208 59.64Z" fill="#FFE761"/>
<path d="M3.00005 80.9999L436.5 80.9998" stroke="#FFE761" stroke-width="6" stroke-linecap="round"/>
</svg>
